<?xml version="1.0" standalone="no"?>
<!DOCTYPE svg PUBLIC "-//W3C//DTD SVG 1.1//EN" "http://www.w3.org/Graphics/SVG/1.1/DTD/svg11.dtd" >
<!--
2013-9-30: Created.
-->
<svg>
<metadata>
Created by iconfont
</metadata>
<defs>

<font id="iconfont" horiz-adv-x="1024" >
  <font-face
    font-family="iconfont"
    font-weight="500"
    font-stretch="normal"
    units-per-em="1024"
    ascent="896"
    descent="-128"
  />
    <missing-glyph />
    
    <glyph glyph-name="emq-import" unicode="&#58881;" d="M492 715.2v-557.3h40V709.8l171.9-171.9 28.3 28.3-222.9 222.9-217.5-217.5 28.3-28.3zM882.7 389.6v-370.7H141.3V389.6h-40v-410.7h821.4V389.6z"  horiz-adv-x="1024" />

    
    <glyph glyph-name="emq-export" unicode="&#58882;" d="M723.8 371.29999999999995l-28.3 28.3L532 236.10000000000002V785h-40v-560.4L311.6 405l-28.3-28.3 223-222.9zM882.7 393.8V23H141.3V393.8h-40V-17h821.4V393.8z"  horiz-adv-x="1024" />

    
    <glyph glyph-name="emq-group" unicode="&#58883;" d="M814 780H116v-698h698V780z m-40-658H156V740h618v-618zM868 467.6V28H428.4v-40H908V467.6z"  horiz-adv-x="1024" />

    
    <glyph glyph-name="emq-console" unicode="&#58884;" d="M91.8 759.7v-751.4h840.4V759.7H91.8z m800.4-711.4H131.8V719.7h760.4v-671.4zM247.3 446.4l17.9-35.8 201.5 100.6L254.6 624l-18.8-35.3 143.6-76.4zM400.8 381.79999999999995h177.9v-40H400.8z"  horiz-adv-x="1024" />

    
    <glyph glyph-name="emq-command" unicode="&#58885;" d="M584.1-43.700000000000045H117.4V811.7h719.5v-319.3h-40V771.7H157.4v-775.4h426.7zM292.8 517.2h391.4v-40H292.8zM770.2-1.7000000000000455L636.5 132.10000000000002l28.3 28.3 105.4-105.5 108.2 108.2 28.2-28.3zM751.6 347.79999999999995h40v-289.9h-40zM292.8 290.79999999999995h234.8v-40H292.8z"  horiz-adv-x="1024" />

    
    <glyph glyph-name="emq-task" unicode="&#58886;" d="M826.7 698.7V796.9H99.1v-727.6h98.2v-98.2h727.6V698.7h-98.2zM197.3 109.29999999999995h-58.2V756.9h647.6v-58.2H197.3v-589.4z m687.6-98.2H237.3V658.7h647.6v-647.6zM379.7 284.6h17.4c0.7-0.1 1.2-0.6 1.4-1.2l10.8-26.2 0.5-1.1c0.3-0.5 0.2-1.2-0.2-1.7L397.2 242l-0.1-0.1c-13.4-13.6-13.4-35.8 0-49.4l21.6-21.5c13.7-13.7 35.9-13.7 49.6 0l12.4 12.4c0.4 0.3 1 0.4 1.5 0.1l27.3-11.2 0.4-0.1c0.3-0.2 0.6-0.7 0.8-1.1v-17.6c0-19.4 15.8-35.1 35.1-35.1H576.2c19.2 0.1 34.9 15.8 35 35.1v17.6c0.2 0.3 0.5 0.8 0.8 1.1l0.4 0.1 26.1 10.7 1.1 0.5c0.5 0.3 1.2 0.2 1.7-0.1l12.3-12.4c13.7-13.7 35.9-13.7 49.6 0l21.4 21.4c13.7 13.7 13.7 36 0 49.7l-12.4 12.3c-0.4 0.5-0.4 1.1-0.1 1.7l10.9 26.3 0.3 0.8c0.2 0.7 0.8 1.1 1.5 1.2h17.6c19.2 0.1 34.9 15.9 35 35.1v30.2c0 9.4-3.6 18.2-10.2 24.8-6.6 6.6-15.4 10.3-24.8 10.3h-17.5c-0.7 0.1-1.2 0.6-1.5 1.2l-10.7 26.1-0.5 1c-0.3 0.6-0.2 1.3 0.1 1.8l12.4 12.3c13.7 13.7 13.7 36 0 49.7l-21.5 21.4c-13.7 13.5-35.9 13.5-49.6-0.1l-12.4-12.4c-0.5-0.4-1.1-0.4-1.7-0.1L613.4 497l-0.8 0.3c-0.7 0.2-1.1 0.8-1.2 1.5v17.5c-0.1 19.2-15.8 34.9-35 35H546c-19.2-0.1-35-15.8-35.1-35v-17.6c-0.1-0.7-0.5-1.2-1.2-1.4l-26.2-10.8-1.1-0.5c-0.5-0.3-1.2-0.2-1.7 0.2l-12.4 12.4c-13.7 13.6-35.9 13.6-49.6 0l-21.4-21.4c-13.6-13.7-13.6-36 0-49.6l12.5-12.6c0.1-0.3 0.2-0.8 0.2-1.1l-0.3-0.5-10.7-26.3-0.3-0.8c-0.2-0.7-0.8-1.1-1.5-1.2h-17.6c-19.2-0.1-34.9-15.8-35-35.1v-30.2c0.1-19.4 15.8-35.2 35.1-35.2z m5 60.5h14.1c16.9 0.8 31.5 11.4 37.3 27.2l9.9 24.2c7.4 14.9 4.2 34.7-7.6 46.5l-9.4 9.4 14.5 14.5 9.4-9.4 0.6-0.6c12.5-11.4 30.3-14.2 45.6-7.1l24.5 10.1c15.8 5.9 26.4 20.5 27.1 37.4v14.1h20.5V497.2c0.8-16.8 11.4-31.4 27.2-37.3l24.5-10.1c15.3-7.1 33.1-4.3 45.6 7.1l10 10 14.5-14.5-9.4-9.4-0.7-0.7c-11.3-12.5-14-30.2-7-45.5l10.1-24.5c5.9-15.8 20.5-26.4 37.3-27.2h14.2v-20.5h-14.1c-16.8-0.8-31.4-11.4-37.3-27.1L676 273c-7.1-15.3-4.3-33.1 7.1-45.6l10.1-10.1-14.5-14.5-9.3 9.4-0.7 0.6c-12.5 11.4-30.3 14.1-45.6 7l-24.2-9.9c-15.8-5.4-27.5-21.7-27.5-38.4v-13.2h-20.5v13.2c0 16.6-11.7 32.9-27.5 38.4l-24.2 9.9c-15.3 7.1-33.1 4.4-45.6-7.1l-10-10-14.5 14.5 9.4 9.4 0.6 0.6c11.5 12.5 14.2 30.3 7.1 45.6l-10.1 24.5c-5.9 15.8-20.5 26.4-37.3 27.2h-14.1v20.6zM561.1 239.29999999999995c52.7 0 95.6 42.9 95.5 95.6 0 25.5-10 49.5-28 67.5s-42 28-67.5 28c-52.7 0-95.5-42.9-95.5-95.6 0-52.6 42.8-95.5 95.5-95.5z m0 151.1c14.9 0 28.8-5.8 39.3-16.2 10.5-10.5 16.3-24.4 16.3-39.3 0-30.6-24.9-55.5-55.5-55.6-30.6 0-55.5 24.9-55.6 55.5-0.1 30.7 24.9 55.6 55.5 55.6z"  horiz-adv-x="1024" />

    
    <glyph glyph-name="emq-delete" unicode="&#58888;" d="M739.5 717.6V798.8h-455v-81.2H97v-59h58.2l88.8-693h535.9l88.9 693H927v59H739.5z m-396 22.2h337v-22.2h-337v22.2z m384.6-715.2H295.9l-80.4 627.1h592.9l-80.3-627.1zM418.2 568.1h52v-432.6h-52zM553.8 568.1h52v-432.6h-52z"  horiz-adv-x="1024" />

    
    <glyph glyph-name="zishebei" unicode="&#58889;" d="M1023.988381 430.278219v105.732311h-114.771842v245.159533H679.672854V896h-105.73231v-114.771842H450.071075V896h-105.73231v-114.771842H114.783461v-245.159534H0.011619v-105.73231h114.771842v-108.195525H0.011619v-105.732311h114.771842v-229.613398h229.543685v-114.79508h105.73231v114.79508h123.869469v-114.79508h105.73231v114.79508h229.555304V216.350384h114.771842v105.73231h-114.771842v108.195525z m-220.515772 0v-337.739209H220.527391V675.484228h582.945218v-245.159533z"  horiz-adv-x="1024" />

    
    <glyph glyph-name="AC" unicode="&#58891;" d="M883.7 499.5H763.3l-122.4 212H385.1l-122.4-212H140.3L12.4 278l127.9-221.5h255.8L512 257.2l115.9-200.7h255.8L1011.6 278 883.7 499.5z m-598.9-19.1h100.3l111.3-192.9H396.1L284.8 480.4z m242.8-192.8l111.3 192.9h102.3L629.8 287.6H527.6zM396.1 692.4h233.7l111.3-192.9H627.9L512 298.8 396.1 499.5H284.8l111.3 192.9z m-11-616.8H151.4L34.5 278l116.9 202.4h111.3l122.4-212h111.4L385.1 75.6z m487.5 0H638.9L527.6 268.5h113.3l122.4 212h109.4L989.5 278 872.6 75.6z"  horiz-adv-x="1024" />

    
    <glyph glyph-name="device" unicode="&#58896;" d="M731 569.5H293c-105.5 0-191.3-83.2-191.3-185.5S187.5 198.5 293 198.5h438c105.5 0 191.3 83.2 191.3 185.5S836.5 569.5 731 569.5z m0-302.7H293c-67.9 0-123.1 52.6-123.1 117.2 0 64.7 55.2 117.3 123.1 117.3h438c67.9 0 123.1-52.6 123.1-117.3 0.1-64.7-55.2-117.2-123.1-117.2zM243.9 423h99.6v-72.5h-99.6z"  horiz-adv-x="1024" />

    
    <glyph glyph-name="devices" unicode="&#58897;" d="M730.8 422.8H292.7c-105.4 0-191.2 83.2-191.2 185.5s85.8 185.5 191.2 185.5h438.1c105.5 0 191.3-83.2 191.3-185.5s-85.8-185.5-191.3-185.5zM292.7 725.6c-67.9 0-123.1-52.6-123.1-117.2s55.2-117.2 123.1-117.2h438.1c67.9 0 123.1 52.6 123.1 117.2s-55.2 117.2-123 117.2H292.7z m0 0M678.9 647.3h99.6v-72.5h-99.6v72.5zM101.5 160.10000000000002c0 102.3 85.8 185.5 191.3 185.5h438.1c105.5 0 191.3-83.2 191.3-185.5s-85.8-185.5-191.3-185.5H292.8c-105.5 0-191.3 83.2-191.3 185.5z m191.3 117.3c-67.9 0-123.1-52.6-123.1-117.3 0-64.6 55.2-117.2 123.1-117.2h438.1c67.9 0 123.1 52.6 123.1 117.2 0 64.7-55.3 117.3-123.1 117.3H292.8z m0 0M243.7 199.10000000000002h99.6v-72.5h-99.6z"  horiz-adv-x="1024" />

    
    <glyph glyph-name="childDevice" unicode="&#58898;" d="M952.6 423.8v91h-98.8v211H656.3V824.7h-91v-98.8H458.7V824.7h-91v-98.8H170.1v-211H71.4v-91h98.8v-93.1H71.4v-91h98.8v-197.6h197.6v-98.8h91v98.8h106.6v-98.8h91v98.8H854V239.7h98.8v91H854v93.1h98.6z m-189.7 0v-290.7H261.1V634.8H762.9v-211z"  horiz-adv-x="1024" />

    
    <glyph glyph-name="gateway" unicode="&#58899;" d="M708.2 106.3c44.9 0 81.5 36.6 81.5 81.5s-36.6 81.5-81.5 81.5-81.5-36.6-81.5-81.5 36.6-81.5 81.5-81.5zM672 187.8c0 20 16.3 36.2 36.2 36.2 20 0 36.2-16.3 36.2-36.2 0-20-16.3-36.2-36.2-36.2-20 0-36.2 16.2-36.2 36.2zM938.9 379.3c-30.3 30.3-70.4 47-113 47h-75.5V776.4c0 23.3-19 42.2-42.2 42.2-23.3 0-42.2-19-42.2-42.2v-350.2H358V776.4c0 23.3-19 42.2-42.2 42.2-23.3 0-42.2-19-42.2-42.2v-350.2h-75.5c-42.6 0-82.7-16.7-113-47s-47-70.4-47-113v-157c0-42.6 16.7-82.7 47-113s70.4-47 113-47H826c42.6 0 82.7 16.7 113 47s47 70.4 47 113v157c-0.1 42.6-16.8 82.8-47.1 113.1z m-816.3-113c0 41.6 33.9 75.5 75.5 75.5H826c41.6 0 75.5-33.9 75.5-75.5v-157c0-41.6-33.9-75.5-75.5-75.5H198.1c-41.6 0-75.5 33.9-75.5 75.5v157zM315.8 106.3c44.9 0 81.5 36.6 81.5 81.5s-36.6 81.5-81.5 81.5-81.5-36.6-81.5-81.5 36.6-81.5 81.5-81.5z m0 117.7c20 0 36.2-16.3 36.2-36.2 0-20-16.3-36.2-36.2-36.2-20 0-36.2 16.3-36.2 36.2 0 20 16.2 36.2 36.2 36.2z"  horiz-adv-x="1024" />

    
    <glyph glyph-name="gateways" unicode="&#58900;" d="M855.8 526.6h-13.3L898 730.3l-48.2 13.2-59.1-216.8H233l-58.8 216.8-48.3-13.1 55.3-203.7h-13c-53.7 0-97.4-43.7-97.4-97.4v-325.7c0-53.7 43.7-97.4 97.4-97.4h687.7c53.7 0 97.4 43.7 97.4 97.4V429.2c-0.1 53.7-43.8 97.4-97.5 97.4z m47.4-423.1c0-26.1-21.3-47.4-47.4-47.4H168.2c-26.1 0-47.4 21.3-47.4 47.4V429.2c0 26.1 21.3 47.4 47.4 47.4h687.7c26.1 0 47.4-21.3 47.4-47.4v-325.7zM215.6 309.5h86.2v-86.2h-86.2zM468.9 309.5h86.2v-86.2h-86.2zM686.1 309.5h86.2v-86.2h-86.2z"  horiz-adv-x="1024" />

    
    <glyph glyph-name="groups" unicode="&#58901;" d="M856.3 533H380.2c-48.6 0-88.1-34.8-88.1-77.7V100c0-42.8 39.5-77.7 88.1-77.7h476.2c48.6 0 88.1 34.8 88.1 77.7V455.5c-0.1 42.8-39.6 77.5-88.2 77.5z m38.3-433c0-15-17.5-27.7-38.1-27.7H380.2c-20.7 0-38.1 12.7-38.1 27.7V455.4c0 15 17.5 27.7 38.1 27.7h476.1c20.7 0 38.2-12.7 38.2-27.6V100zM848.7 639.4H276.2c-22.9 0-44.7-7-61.4-19.8-18.4-14.1-29-34.2-29-55.2v-410.7h50V564.3c0 11.8 16.6 25.1 40.4 25.1h572.5v50zM742.4 745.7H169.8c-22.9 0-44.7-7-61.4-19.8-18.4-14.1-29-34.2-29-55.2V260h50V670.6c0 11.8 16.6 25.1 40.4 25.1h572.5v50z"  horiz-adv-x="1024" />

    
    <glyph glyph-name="products" unicode="&#58902;" d="M420 326.2H174.9c-14.9 0-28.9-5.7-39.3-15.9-10.6-10.4-16.4-24.3-16.4-39.3v-241.3c0-14.9 5.8-28.9 16.3-39.2 10.4-10.3 24.4-15.9 39.3-15.9H420c14.9 0 28.9 5.7 39.3 15.9 10.5 10.4 16.3 24.3 16.3 39.2V271c0 14.9-5.8 28.9-16.3 39.2-10.4 10.3-24.4 16-39.3 16z m5.7-296.5c0-3.1-2.3-5.2-5.6-5.2H174.9c-3.4 0-5.7 2.1-5.7 5.2V271c0 3.1 2.3 5.2 5.7 5.2H420c3.4 0 5.6-2.1 5.6-5.2v-241.3zM831 326.2H585.9c-14.9 0-28.9-5.7-39.3-15.9-10.6-10.4-16.4-24.3-16.4-39.3v-241.3c0-14.9 5.8-28.9 16.3-39.2 10.4-10.3 24.4-15.9 39.3-15.9H831c14.9 0 28.9 5.7 39.3 15.9 10.5 10.4 16.3 24.3 16.3 39.2V271c0 14.9-5.8 28.9-16.3 39.2-10.4 10.3-24.4 16-39.3 16z m5.7-296.5c0-3.1-2.3-5.2-5.6-5.2H585.9c-3.4 0-5.6 2.1-5.6 5.2V271c0 3.1 2.3 5.2 5.6 5.2H831c3.4 0 5.6-2.1 5.6-5.2v-241.3zM888.7 621.5L730.3 778c-21 20.7-54 20.7-75 0L496.1 621.9c-10.2-10.1-15.9-23.4-15.9-37.5 0-14.1 5.6-27.4 15.9-37.4l158.6-156.7c10.5-10.4 24-15.5 37.5-15.5s27 5.2 37.5 15.5l159 156.5c10.2 9.7 16.1 23.3 16.1 37.4 0 14-5.9 27.6-16.1 37.3zM854.3 583l-0.2-0.2-159.5-156.9c-1.5-1.5-3.3-1.5-4.8 0L531.2 582.6c-0.4 0.4-1 1.1-1 1.8s0.5 1.4 0.9 1.8l159.2 156.2c0.8 0.7 1.6 1.1 2.4 1.1 0.8 0 1.6-0.4 2.4-1.1l158.6-156.7 0.5-0.5c0.1-0.1 0.5-0.5 0.5-1.1 0.1-0.6-0.3-0.9-0.4-1.1zM420 730.8H174.9c-14.9 0-28.9-5.7-39.3-15.9-10.5-10.4-16.4-24.3-16.4-39.2v-241.3c0-14.9 5.8-28.9 16.4-39.2 10.4-10.3 24.4-15.9 39.3-15.9H420c14.9 0 28.9 5.7 39.3 15.9 10.5 10.4 16.3 24.3 16.3 39.2V675.6c0 14.9-5.8 28.9-16.3 39.2-10.4 10.3-24.4 16-39.3 16z m5.7-296.5c0-3.1-2.3-5.2-5.6-5.2H174.9c-3.4 0-5.7 2.1-5.7 5.2V675.6c0 3.1 2.3 5.2 5.7 5.2H420c3.4 0 5.6-2.1 5.6-5.2v-241.3z"  horiz-adv-x="1024" />

    
    <glyph glyph-name="devices-dashboard" unicode="&#58903;" d="M724.1 654.7H299.9c-32.3 0-58.6-26.3-58.6-58.5V172c0-32.3 26.3-58.5 58.6-58.5h424.2c32.3 0 58.5 26.3 58.5 58.5V596.1c0.1 32.3-26.2 58.6-58.5 58.6z m8.6-482.8c0-4.7-3.8-8.5-8.5-8.5H299.9c-4.7 0-8.6 3.8-8.6 8.5V596.1c0 4.7 3.8 8.5 8.6 8.5h424.2c4.7 0 8.5-3.8 8.5-8.5v-424.2zM612.5 501.1h-201c-26.1 0-47.3-22.6-47.3-50.3v-164.4c0-27.7 21.2-50.3 47.3-50.3h200.9c26.1 0 47.4 22.6 47.4 50.3V450.8c0 27.8-21.2 50.3-47.3 50.3z m-2.7-214.6v-0.3H414.2V450.8v0.3h195.6V286.5zM671.2 66.70000000000005h50v-102.4h-50zM671.2 803.7h50v-102.4h-50zM548.4 66.70000000000005h50v-102.4h-50zM548.4 803.7h50v-102.4h-50zM425.6 66.70000000000005h50v-102.4h-50zM425.6 803.7h50v-102.4h-50zM302.8 66.70000000000005h50v-102.4h-50zM302.8 803.7h50v-102.4h-50zM829.3 593.2h102.4v-50H829.3zM829.3 470.4h102.4v-50H829.3zM829.3 347.6h102.4v-50H829.3zM829.3 224.79999999999995h102.4v-50H829.3zM92.3 593.2h102.4v-50H92.3zM92.3 470.4h102.4v-50H92.3zM92.3 347.6h102.4v-50H92.3zM92.3 224.79999999999995h102.4v-50H92.3z"  horiz-adv-x="1024" />

    
    <glyph glyph-name="emq-edit" unicode="&#58904;" d="M943.33333333 642.9L796.13333333 790.1c-12.1 12.2-28.3 18.8-45.6 18.8h-0.1c-17.3 0-33.5-6.8-45.8-19l-403.1-403c-10.5-10.5-20.7-28.5-24.3-42.9l-53-211.3c-4.9-19.4-0.6-37.6 11.7-49.9 8.8-8.8 21.1-13.7 34.6-13.7 5 0 10.2 0.7 15.3 2l211.3 53c14.6 3.7 32.3 13.7 42.9 24.3l403 403.1c12.3 12.3 19.1 28.5 19.1 45.8 0.1 17.2-6.6 33.4-18.8 45.6z m-41.1-45.6c0-1.3-0.5-2.5-1.5-3.4l-403-403.1c-2.9-2.9-11.1-7.5-15.1-8.6L286.23333333 133l49.3 196.4c1 3.9 5.7 12.3 8.6 15.1l403 403c0.9 0.9 2.1 1.4 3.5 1.4 0.7 0 2.1-0.2 3.1-1.2l147.2-147.2c0.8-0.9 1.3-2 1.3-3.2zM772.43333333 19.100000000000023h-608v612h196.7v60H104.43333333v-732h728V183.89999999999998h-60z"  horiz-adv-x="1024" />

    
    <glyph glyph-name="Bindinglabel" unicode="&#58905;" d="M507.4 830.2l-389-53.4-52.6-389.1 450.7-449.9 441.6 442.4-450.7 450z m9.1-807.5L129.3 409.2l42.5 314.4 314.3 43.1 387.2-386.5-356.8-357.5zM244.651902 559.630576a56.1 56.1 0 1 1 79.335996 79.338765 56.1 56.1 0 1 1-79.335996-79.338765Z"  horiz-adv-x="1024" />

    
    <glyph glyph-name="Alarm" unicode="&#58906;" d="M928 559.7c-22.8 53.9-55.3 102.2-96.8 143.5-42.1 42.2-91.4 75.2-146.4 98C630 824 572 835.5 512.7 835.5h-1.3C452 835.5 394 824 339.2 801.3c-55.1-22.8-104.3-55.8-146.4-98-42.2-42.1-75.2-91.4-98-146.4C71.9 501.8 60.4 443.6 60.5 384c-0.1-59.6 11.4-117.8 34.2-172.8s55.8-104.3 98-146.4c42.1-42.2 91.4-75.2 146.4-98 54.9-22.7 112.8-34.2 172.2-34.2h1.4c59.4 0 117.3 11.5 172.2 34.2 55.1 22.8 104.3 55.8 146.4 98 42.2 42.1 75.2 91.4 98 146.5 22.8 55.1 34.3 113.2 34.2 172.8 0 60.9-11.9 120.1-35.5 175.6z m-411-562h-5C299-2.3 125.7 171 125.7 384S299 770.3 512 770.3 898.3 597 898.3 384c0-211.3-170.6-383.6-381.3-386.3zM545 251.8l10 412.1h-86l10-412.1zM512 144.4m-51.6 0a51.6 51.6 0 1 1 103.2 0 51.6 51.6 0 1 1-103.2 0Z"  horiz-adv-x="1024" />

    
    <glyph glyph-name="Detail" unicode="&#58907;" d="M928 559.7c-22.8 53.9-55.3 102.2-96.8 143.5-42.1 42.2-91.4 75.2-146.4 98C630 824 572 835.5 512.7 835.5h-1.3C452 835.5 394 824 339.2 801.3c-55.1-22.8-104.3-55.8-146.4-98-42.2-42.1-75.2-91.4-98-146.4C71.9 501.8 60.4 443.6 60.5 384c-0.1-59.6 11.4-117.8 34.2-172.8 22.8-55.1 55.8-104.3 98-146.4 42.1-42.2 91.4-75.2 146.4-98 54.9-22.7 112.8-34.2 172.2-34.2h1.3c59.4 0 117.3 11.5 172.2 34.2 55.1 22.8 104.3 55.8 146.4 98 42.2 42.1 75.2 91.4 98 146.4 22.8 55.1 34.3 113.2 34.2 172.8 0.1 61-11.8 120.2-35.4 175.7zM898.3 384c0-211.3-170.6-383.6-381.3-386.3h-5C299-2.3 125.7 171 125.7 384S299 770.3 512 770.3 898.3 597 898.3 384zM577.2 238h-0.2c-4.9-1.4-10.1-2.2-15.2-2.3-11.5 0-16.5 2.1-18.8 3.9-3.7 2.9-4.4 9.6-4.4 14.8 0 3.3 0.6 8.5 1.9 15.2 1.3 7 2.7 13.2 4.3 18.5l20 69c2.1 7.1 3.6 14.5 4.2 21.8 0.8 7.8 1.1 13.2 1.1 16.4 0 16-5.9 29.2-17.5 39.2-11.4 9.9-27.6 14.9-48.1 14.9-11.2 0-23.2-2-35.7-5.8-11.6-3.6-24.1-8-38.2-13.5l-2.4-0.9-8.3-33.1 8.9 3.3c3.5 1.3 7.9 2.7 13.8 4.4 4.9 1.5 9.8 2.2 14.6 2.2 12.1 0 16.5-2.4 18.1-3.9 2.7-2.4 4.1-7.6 4.1-14.8 0-4.5-0.6-9.6-1.7-15.2-1.1-5.4-2.6-11.4-4.5-18.5L453 284.3l-0.1-0.2c-1.8-7.4-3.2-14.1-4-20.1-0.8-6-1.3-11.9-1.3-17.7 0-15.7 6.1-28.8 18-39 11.7-10 28-15 48.7-15 13.2 0 25 1.7 35 5.1 9.3 3.1 21.9 7.7 38.8 14.2l2.4 0.9 8.4 33.5-9.2-3.8c-3.9-1.7-8.2-3.1-12.5-4.2zM586.1 561.8l-8.3 7.1v-0.9c-8.6 5.3-18.6 8-28.9 7.8-14.4 0-26.9-4.7-37.1-14-10.2-8.7-16-21.3-15.9-34.6 0-13.4 5.3-25 15.9-34.4 10.3-9.3 22.8-14 37.2-14 14.4 0 26.9 4.7 37.1 14 10.1 8.6 15.8 21.2 15.7 34.4 0.2 13.2-5.5 25.9-15.7 34.6z"  horiz-adv-x="1024" />

    
    <glyph glyph-name="unbind" unicode="&#58908;" d="M575.9 63.299999999999955l-383.5-1.2-0.4 317.7h80.7v85.8H192c-47.8 0-86.7-38-86.7-84.6v-318.8c0-46.7 38.9-84.6 86.7-84.6h384.2c47.8 0 86.6 38 86.6 84.6v94.7h-87l0.1-93.6zM831.9 790.5H447.6c-47.8 0-86.6-38-86.6-84.6v-60.2h87l-0.4 59.1 383.8 1.1 0.4-317.7h-88.1v-85.8h88.1c47.8 0 86.6 38 86.6 84.6V705.9c0.1 46.6-38.8 84.6-86.5 84.6zM139.8 605.3l682.7-506.8 60.6 64-682.6 506.9z"  horiz-adv-x="1024" />

    
    <glyph glyph-name="view" unicode="&#58909;" d="M512 790.5c-224.2 0-406.5-182.4-406.5-406.5S287.8-22.5 512-22.5 918.5 159.9 918.5 384 736.2 790.5 512 790.5z m0-722.7c-174.3 0-316.2 141.8-316.2 316.2S337.7 700.2 512 700.2 828.2 558.3 828.2 384 686.3 67.8 512 67.8zM331.3 384m-67.8 0a67.8 67.8 0 1 1 135.6 0 67.8 67.8 0 1 1-135.6 0ZM512 384m-67.8 0a67.8 67.8 0 1 1 135.6 0 67.8 67.8 0 1 1-135.6 0ZM692.7 384m-67.8 0a67.8 67.8 0 1 1 135.6 0 67.8 67.8 0 1 1-135.6 0Z"  horiz-adv-x="1024" />

    
    <glyph glyph-name="email" unicode="&#58910;" d="M850.3 764.3H173.7c-80.6 0-146.1-65.5-146.1-146.1v-468.4c0-80.6 65.5-146.1 146.1-146.1h676.6c80.6 0 146.1 65.5 146.1 146.1V618.2c0 80.6-65.5 146.1-146.1 146.1z m0-84c6.1 0 12-0.9 17.6-2.6L507.3 416.1l-351 261.7c5.5 1.6 11.4 2.5 17.4 2.5h676.6z m0-592.6H173.7c-34.2 0-62.1 27.9-62.1 62.1V606.3l395.1-294.5 405.7 294.4v-456.5c0-34.2-27.9-62-62.1-62z"  horiz-adv-x="1024" />

    
    <glyph glyph-name="password" unicode="&#58911;" d="M718.3 545.6v98.2C718.3 744.3 636.4 826 535.7 826h-45.9c-48.9 0-94.8-18.9-129.2-53.3-34.4-34.4-53.4-80.1-53.4-128.9v-98.2H73.6v-598H952v598H718.3z m-327.1 98.2c0 26.3 10.2 51 28.7 69.5 18.6 18.5 43.4 28.7 69.9 28.7h45.9c54.4 0 98.6-44 98.6-98.2v-98.2H391.2v98.2zM868 31.6H157.6v430H868v-430zM512.8 456.5c-74.7 0-135.5-60.8-135.5-135.5 0-46.7 24.1-83.6 46.7-109.7v-165.9h177.5V211.3c22.7 26.1 46.8 63 46.7 109.7 0 74.8-60.7 135.5-135.4 135.5z m16.3-199.9l-11.6-12.2v-115H508v115l-11.6 12.2c-24.3 25.5-35.1 45.3-35.1 64.5 0 28.4 23.1 51.5 51.5 51.5s51.5-23.1 51.5-51.5c0-19.2-10.9-39-35.2-64.5z"  horiz-adv-x="1024" />

    


  </font>
</defs>
</svg>
